<?xml version="1.0" standalone="no"?>
<!DOCTYPE svg PUBLIC "-//W3C//DTD SVG 20010904//EN"
 "http://www.w3.org/TR/2001/REC-SVG-20010904/DTD/svg10.dtd">
<svg version="1.0" xmlns="http://www.w3.org/2000/svg"
 width="225.000000pt" height="225.000000pt" viewBox="0 0 225.000000 225.000000"
 preserveAspectRatio="xMidYMid meet">

<g transform="translate(0.000000,225.000000) scale(0.100000,-0.100000)"
fill="#4fe4c4" stroke="none">
<path d="M1041 2044 c-32 -89 -31 -89 -97 -92 -92 -4 -94 -8 -27 -59 l60 -46
-18 -71 c-10 -38 -17 -72 -15 -74 2 -1 31 16 64 39 l61 42 61 -37 c34 -21 63
-36 65 -34 2 2 -5 32 -15 67 -11 34 -20 66 -20 69 0 4 25 27 56 52 53 42 55
45 33 51 -13 4 -47 7 -75 8 l-51 1 -30 72 -30 71 -22 -59z"/>
<path d="M595 2048 c-137 -26 -291 -148 -354 -280 -147 -310 51 -680 388 -726
l56 -8 -76 75 c-89 89 -141 176 -169 286 -58 227 26 487 203 627 54 42 49 45
-48 26z"/>
<path d="M1057 1192 l-727 -727 68 -68 67 -67 728 728 727 727 -68 68 -67 67
-728 -728z"/>
<path d="M765 1618 l-18 -56 -61 -7 -60 -7 23 -19 c12 -10 34 -27 48 -37 l26
-19 -16 -53 c-9 -30 -15 -56 -13 -57 1 -2 20 10 42 27 48 36 59 37 107 4 21
-14 40 -24 43 -22 2 3 -3 27 -11 54 l-15 49 47 43 47 42 -62 0 c-56 0 -63 2
-71 23 -5 12 -15 38 -23 57 l-15 35 -18 -57z"/>
<path d="M1832 1217 l51 -126 37 42 c20 23 65 74 98 113 l62 72 -43 6 c-23 3
-90 8 -149 12 l-108 7 52 -126z"/>
<path d="M1322 927 c-193 -193 -352 -355 -352 -359 0 -14 119 -68 182 -83 271
-64 548 112 613 387 19 80 19 146 0 226 -15 63 -69 182 -83 182 -4 0 -166
-159 -360 -353z"/>
<path d="M1831 748 c-28 -66 -50 -122 -49 -123 2 0 70 4 152 9 l149 11 -98
113 c-53 61 -98 112 -100 112 -2 0 -26 -55 -54 -122z"/>
<path d="M915 344 c11 -194 1 -188 132 -74 l111 97 -125 52 -125 51 7 -126z"/>
<path d="M1502 421 c-62 -26 -113 -52 -114 -57 0 -5 47 -51 106 -102 96 -85
106 -91 110 -70 8 37 21 278 16 277 -3 0 -56 -22 -118 -48z"/>
</g>
</svg>
