<svg width="44" height="44" viewBox="0 0 44 44" fill="none" xmlns="http://www.w3.org/2000/svg">
<g id="dl-mode 1">
<g id="Group">
<path id="separator" d="M20.6702 20.6898L6.45334 34.9067L7.78312 36.2365L9.09334 37.5467L23.3298 23.3102L37.5467 9.09336L36.2169 7.76358L34.9067 6.45336L20.6702 20.6898Z" fill="#444444"/>
<g id="moon">
<path id="Vector" d="M20.3573 4.02847C19.7316 5.76891 19.7511 5.76891 18.4604 5.82758C16.6613 5.9058 16.6222 5.98402 17.9324 6.98135L19.1058 7.88091L18.7538 9.26935C18.5582 10.0125 18.4213 10.6774 18.4604 10.7165C18.4996 10.736 19.0667 10.4036 19.712 9.9538L20.9049 9.13247L22.0978 9.85602C22.7627 10.2667 23.3298 10.56 23.3689 10.5209C23.408 10.4818 23.2711 9.89513 23.0756 9.21069C22.8604 8.5458 22.6844 7.92002 22.6844 7.86135C22.6844 7.78313 23.1733 7.33335 23.7796 6.84447C24.816 6.02313 24.8551 5.96447 24.4249 5.84713C24.1707 5.76891 23.5058 5.71024 22.9582 5.69069L21.9609 5.67113L21.3742 4.26313L20.7876 2.87469L20.3573 4.02847Z" fill="#444444"/>
<path id="Vector_2" d="M11.6356 3.95027C8.95645 4.45871 5.94489 6.84449 4.71289 9.42582C1.83823 15.488 5.71022 22.7236 12.3004 23.6232L13.3956 23.7796L11.9093 22.3129C10.1689 20.5725 9.152 18.8712 8.60445 16.72C7.47022 12.2809 9.11289 7.19649 12.5742 4.45871C13.6302 3.63738 13.5324 3.57871 11.6356 3.95027Z" fill="#444444"/>
<path id="Vector_3" d="M14.96 12.3592L14.608 13.4543L13.4151 13.5912L12.2418 13.7281L12.6916 14.0996C12.9262 14.2952 13.3564 14.6276 13.6302 14.8232L14.1387 15.1947L13.8258 16.2312C13.6498 16.8178 13.5324 17.3263 13.5716 17.3458C13.5911 17.385 13.9627 17.1503 14.3929 16.8178C15.3316 16.1138 15.5467 16.0943 16.4853 16.7396C16.896 17.0134 17.2676 17.209 17.3262 17.1698C17.3653 17.1112 17.2676 16.6418 17.1111 16.1138L16.8178 15.1556L17.7369 14.3147L18.656 13.4934H17.4436C16.3484 13.4934 16.2116 13.4543 16.0551 13.0436C15.9573 12.809 15.7618 12.3005 15.6053 11.929L15.312 11.2445L14.96 12.3592Z" fill="#444444"/>
</g>
<g id="sun">
<path id="Vector_4" d="M35.8258 20.2009L36.8231 22.6649L37.5467 21.8436C37.9378 21.3938 38.8178 20.3965 39.4631 19.6338L40.6756 18.2258L39.8347 18.1085C39.3849 18.0498 38.0747 17.952 36.9209 17.8738L34.8089 17.7369L35.8258 20.2009Z" fill="#444444"/>
<path id="Vector_5" d="M25.8524 25.872C22.0782 29.6462 18.9689 32.8142 18.9689 32.8925C18.9689 33.1662 21.296 34.2222 22.528 34.5156C27.8276 35.7671 33.2444 32.3253 34.5156 26.9476C34.8871 25.3831 34.8871 24.0925 34.5156 22.528C34.2222 21.296 33.1662 18.9689 32.8924 18.9689C32.8142 18.9689 29.6462 22.0782 25.8524 25.872Z" fill="#444444"/>
<path id="Vector_6" d="M35.8062 29.3724C35.2587 30.6631 34.8285 31.7582 34.848 31.7778C34.8871 31.7778 36.2169 31.6995 37.8205 31.6018L40.7342 31.3867L38.8178 29.1769C37.7813 27.984 36.9013 26.9867 36.8622 26.9867C36.8231 26.9867 36.3538 28.0622 35.8062 29.3724Z" fill="#444444"/>
<path id="Vector_7" d="M17.8933 37.2729C18.1085 41.0667 17.9129 40.9493 20.4747 38.72L22.6453 36.8231L20.2009 35.8062L17.7565 34.8089L17.8933 37.2729Z" fill="#444444"/>
<path id="Vector_8" d="M29.3724 35.7671C28.16 36.2756 27.1627 36.784 27.1431 36.8818C27.1431 36.9796 28.0622 37.8791 29.216 38.8765C31.0933 40.5387 31.2889 40.656 31.3671 40.2454C31.5236 39.5218 31.7778 34.8089 31.68 34.8285C31.6213 34.8285 30.5849 35.2587 29.3724 35.7671Z" fill="#444444"/>
</g>
</g>
</g>
</svg>
